# xmcd CD database file
#
# Track frame offsets:
#	150
#	9975
#	21637
#	33900
#	49157
#	62982
#	72657
#	82547
#	92540
#	103485
#
# Disc length: 1528 seconds
#
# Revision: 0
# Processed by: cddbd v1.5.1PL0 Copyright (c) Steve Scherf et al.
# Submitted via: CDex 1.51
#
DISCID=8005f60a
DTITLE=Various Artist - Great Country Hymns Disc 2
DYEAR=2003
DGENRE=Country
TTITLE0=Eddy Arnold/Blessed Assurance
TTITLE1=Jim Reeves/I'll Fly Away
TTITLE2=Skeeter Davis/Hand In Hand With Jesus
TTITLE3=Charley Pride/Let Me Live
TTITLE4=Porter Wagoner and Dolly Parton/Daddy Was An Old Time Preacher Man
TTITLE5=Limeliters/Sing Hallelujah
TTITLE6=James Blackwood/You'll Never Walk Alone
TTITLE7=Speers/Hide Me, Rock Of Ages
TTITLE8=Anita Kerr Quartet/The Wayfaring Stranger
TTITLE9=Martha Carson/He'll Understand And Say 'Well Done'
EXTD=YEAR: 2003
EXTT0=
EXTT1=
EXTT2=
EXTT3=
EXTT4=
EXTT5=
EXTT6=
EXTT7=
EXTT8=
EXTT9=
PLAYORDER=
